# xmcd
#
# Track frame offsets: 
#        150
#        33403
#        68671
#        110595
#        136001
#        160472
#        187903
#        223663
#        261161
#        311016
#
# Disc length: 4518 seconds
#
# Revision: 0
# Processed by: cddbd v1.5.2PL0 Copyright (c) Steve Scherf et al.
# Submitted via: ExactAudioCopy v0.99pb5
#
DISCID=8b11a40a
DTITLE=Allman Brothers Band - One Note
DYEAR=2009
DGENRE=Blues
TTITLE0=Rockin' Horse
TTITLE1=High Cost Of Living
TTITLE2=Desdemona
TTITLE3=Who To Believe
TTITLE4=Old Before My Time
TTITLE5=Come And Go Blues (Live)
TTITLE6=Worried Down With The Blues (Live)
TTITLE7=Dreamin' (Live - Edited)
TTITLE8=Whippin' Post (Live - Edited)
TTITLE9=Old Friend
EXTD=
EXTT0=
EXTT1=
EXTT2=
EXTT3=
EXTT4=
EXTT5=
EXTT6=
EXTT7=
EXTT8=
EXTT9=
PLAYORDER=
